<?xml version="1.0" standalone="no"?>
<!DOCTYPE svg PUBLIC "-//W3C//DTD SVG 20010904//EN"
 "http://www.w3.org/TR/2001/REC-SVG-20010904/DTD/svg10.dtd">
<svg version="1.0" xmlns="http://www.w3.org/2000/svg"
 width="377.000000pt" height="377.000000pt" viewBox="0 0 377.000000 377.000000"
 preserveAspectRatio="xMidYMid meet">
<metadata>
Created by potrace 1.14, written by Peter Selinger 2001-2017
</metadata>
<g transform="translate(0.000000,377.000000) scale(0.100000,-0.100000)"
fill="#000000" stroke="none">
<path d="M2116 3687 c-16 -28 -39 -64 -50 -79 -12 -14 -32 -41 -46 -59 -56
-73 -155 -160 -225 -197 -39 -21 -185 -78 -275 -109 -86 -28 -265 -123 -335
-176 -136 -104 -231 -245 -280 -413 -26 -90 -29 -202 -7 -255 29 -73 117 -132
211 -143 125 -14 439 118 853 359 48 28 219 129 348 205 80 47 171 99 203 115
121 62 159 133 116 221 -41 85 -146 177 -222 194 -117 26 -198 93 -236 195
-18 48 -26 107 -26 195 0 0 -13 -24 -29 -53z"/>
<path d="M2805 2880 c-55 -19 -199 -89 -315 -155 -99 -55 -327 -174 -470 -246
-239 -119 -439 -191 -665 -240 -123 -27 -133 -28 -190 -35 -27 -3 -57 -7 -65
-9 -8 -3 -33 -7 -55 -10 -33 -5 -74 -14 -170 -39 -56 -15 -76 -22 -110 -39
-69 -34 -126 -87 -151 -141 -20 -44 -24 -67 -24 -157 0 -120 10 -143 79 -179
100 -50 212 -65 501 -64 204 1 247 4 326 22 229 54 386 131 819 401 410 256
499 319 614 431 76 74 116 127 147 195 50 108 16 210 -87 263 -52 27 -110 27
-184 2z"/>
<path d="M3056 2344 c-25 -9 -71 -45 -120 -92 -94 -92 -153 -136 -302 -228
-157 -97 -323 -187 -541 -295 -106 -51 -193 -97 -193 -101 0 -8 558 -3 605 6
17 3 66 10 110 17 104 15 230 51 320 93 168 78 358 239 384 326 16 54 15 132
-2 163 -20 36 -70 88 -99 103 -39 21 -116 24 -162 8z"/>
<path d="M2860 1473 c-43 -41 -110 -67 -183 -71 -93 -6 -160 15 -268 81 -12 8
-25 3 -52 -17 -110 -84 -248 -87 -402 -10 l-71 35 -69 -35 c-152 -78 -290 -74
-402 11 l-32 25 -55 -31 c-76 -41 -148 -61 -222 -61 -68 0 -118 17 -181 62
l-42 31 -42 -37 c-120 -102 -301 -98 -417 9 -14 14 -27 23 -28 22 -2 -1 13
-47 32 -102 20 -55 62 -174 94 -265 32 -91 95 -268 140 -395 45 -126 112 -318
150 -425 77 -218 87 -231 190 -272 55 -22 56 -22 874 -23 900 -2 872 -3 965
58 45 30 53 45 101 181 15 45 56 160 90 256 35 96 75 211 90 255 16 44 69 195
119 335 51 140 93 262 96 270 2 8 13 40 24 70 12 30 21 56 21 58 0 2 -17 -10
-37 -26 -82 -64 -135 -84 -224 -84 -60 1 -141 36 -195 84 l-39 35 -25 -24z"/>
</g>
</svg>
